HIERARCHY
ROOT hip
{
  OFFSET 0 0 0
  CHANNELS 6 Xposition Yposition Zposition Zrotation Yrotation Xrotation
  JOINT abdomen
  {
    OFFSET 0 20.6881 -0.73152
    CHANNELS 3 Zrotation Xrotation Yrotation
    JOINT chest
    {
      OFFSET 0 11.7043 -0.48768
      CHANNELS 3 Zrotation Xrotation Yrotation
      JOINT neck
      {
        OFFSET 0 22.1894 -2.19456
        CHANNELS 3 Zrotation Xrotation Yrotation
        JOINT head
        {
          OFFSET -0.24384 7.07133 1.2192
          CHANNELS 3 Zrotation Xrotation Yrotation
          JOINT leftEye
          {
            OFFSET 4.14528 8.04674 8.04672
            CHANNELS 3 Zrotation Xrotation Yrotation
            End Site
            {
              OFFSET 1 0 0
            }
          }
          JOINT rightEye
          {
            OFFSET -3.6576 8.04674 8.04672
            CHANNELS 3 Zrotation Xrotation Yrotation
            End Site
            {
              OFFSET 1 0 0
            }
          }
        }
      }
      JOINT rCollar
      {
        OFFSET -2.68224 19.2634 -4.8768
        CHANNELS 3 Zrotation Xrotation Yrotation
        JOINT rShldr
        {
          OFFSET -8.77824 -1.95073 1.46304
          CHANNELS 3 Zrotation Xrotation Yrotation
          JOINT rForeArm
          {
            OFFSET -28.1742 -1.7115 0.48768
            CHANNELS 3 Zrotation Xrotation Yrotation
            JOINT rHand
            {
              OFFSET -22.5879 0.773209 7.07136
              CHANNELS 3 Zrotation Xrotation Yrotation
              JOINT rThumb1
              {
                OFFSET -1.2192 -0.487915 3.41376
                CHANNELS 3 Zrotation Xrotation Yrotation
                JOINT rThumb2
                {
                  OFFSET -3.37035 -0.52449 3.41376
                  CHANNELS 3 Zrotation Xrotation Yrotation
                  End Site
                  {
                    OFFSET -1.78271 -1.18214 1.43049
                  }
                }
              }
              JOINT rIndex1
              {
                OFFSET -7.75947 0.938293 5.60832
                CHANNELS 3 Zrotation Xrotation Yrotation
                JOINT rIndex2
                {
                  OFFSET -2.54057 -0.884171 1.56538
                  CHANNELS 3 Zrotation Xrotation Yrotation
                  End Site
                  {
                    OFFSET -1.62519 -0.234802 1.16502
                  }
                }
              }
              JOINT rMid1
              {
                OFFSET -8.24714 1.18213 3.41376
                CHANNELS 3 Zrotation Xrotation Yrotation
                JOINT rMid2
                {
                  OFFSET -3.10165 -0.590103 1.0647
                  CHANNELS 3 Zrotation Xrotation Yrotation
                  End Site
                  {
                    OFFSET -2.48547 -0.328903 0.83742
                  }
                }
              }
              JOINT rRing1
              {
                OFFSET -8.82822 0.546677 1.51678
                CHANNELS 3 Zrotation Xrotation Yrotation
                JOINT rRing2
                {
                  OFFSET -2.60934 -0.819778 -0.0198488
                  CHANNELS 3 Zrotation Xrotation Yrotation
                  End Site
                  {
                    OFFSET -2.33842 -0.294052 0.168128
                  }
                }
              }
              JOINT rPinky1
              {
                OFFSET -8.27202 -0.0477905 -0.4584
                CHANNELS 3 Zrotation Xrotation Yrotation
                JOINT rPinky2
                {
                  OFFSET -1.82734 -0.647385 -0.700984
                  CHANNELS 3 Zrotation Xrotation Yrotation
                  End Site
                  {
                    OFFSET -1.69225 -0.51767 -0.607171
                  }
                }
              }
            }
          }
        }
      }
      JOINT lCollar
      {
        OFFSET 2.68224 19.2634 -4.8768
        CHANNELS 3 Zrotation Xrotation Yrotation
        JOINT lShldr
        {
          OFFSET 8.77824 -1.95073 1.46304
          CHANNELS 3 Zrotation Xrotation Yrotation
          JOINT lForeArm
          {
            OFFSET 28.1742 -1.7115 0.48768
            CHANNELS 3 Zrotation Xrotation Yrotation
            JOINT lHand
            {
              OFFSET 22.5879 0.773209 7.07136
              CHANNELS 3 Zrotation Xrotation Yrotation
              JOINT lThumb1
              {
                OFFSET 1.2192 -0.487915 3.41376
                CHANNELS 3 Zrotation Xrotation Yrotation
                JOINT lThumb2
                {
                  OFFSET 3.37035 -0.52449 3.41376
                  CHANNELS 3 Zrotation Xrotation Yrotation
                  End Site
                  {
                    OFFSET 1.78271 -1.18214 1.43049
                  }
                }
              }
              JOINT lIndex1
              {
                OFFSET 7.75947 0.938293 5.60832
                CHANNELS 3 Zrotation Xrotation Yrotation
                JOINT lIndex2
                {
                  OFFSET 2.54057 -0.884171 1.56538
                  CHANNELS 3 Zrotation Xrotation Yrotation
                  End Site
                  {
                    OFFSET 1.62519 -0.234802 1.16502
                  }
                }
              }
              JOINT lMid1
              {
                OFFSET 8.24714 1.18213 3.41376
                CHANNELS 3 Zrotation Xrotation Yrotation
                JOINT lMid2
                {
                  OFFSET 3.10165 -0.590103 1.0647
                  CHANNELS 3 Zrotation Xrotation Yrotation
                  End Site
                  {
                    OFFSET 2.48547 -0.328903 0.83742
                  }
                }
              }
              JOINT lRing1
              {
                OFFSET 8.82822 0.546677 1.51678
                CHANNELS 3 Zrotation Xrotation Yrotation
                JOINT lRing2
                {
                  OFFSET 2.60934 -0.819778 -0.0198488
                  CHANNELS 3 Zrotation Xrotation Yrotation
                  End Site
                  {
                    OFFSET 2.33842 -0.294052 0.168128
                  }
                }
              }
              JOINT lPinky1
              {
                OFFSET 8.27202 -0.0477905 -0.4584
                CHANNELS 3 Zrotation Xrotation Yrotation
                JOINT lPinky2
                {
                  OFFSET 1.82734 -0.647385 -0.700984
                  CHANNELS 3 Zrotation Xrotation Yrotation
                  End Site
                  {
                    OFFSET 1.69225 -0.51767 -0.607171
                  }
                }
              }
            }
          }
        }
      }
    }
  }
  JOINT rButtock
  {
    OFFSET -8.77824 4.35084 1.2192
    CHANNELS 3 Zrotation Xrotation Yrotation
    JOINT rThigh
    {
      OFFSET 0 -1.70687 -2.19456
      CHANNELS 3 Zrotation Xrotation Yrotation
      JOINT rShin
      {
        OFFSET 0 -36.8199 0.73152
        CHANNELS 3 Zrotation Xrotation Yrotation
        JOINT rFoot
        {
          OFFSET 0.73152 -45.1104 -5.12064
          CHANNELS 3 Zrotation Xrotation Yrotation
          End Site
          {
            OFFSET -1.1221 -3.69964 12.103
          }
        }
      }
    }
  }
  JOINT lButtock
  {
    OFFSET 8.77824 4.35084 1.2192
    CHANNELS 3 Zrotation Xrotation Yrotation
    JOINT lThigh
    {
      OFFSET 0 -1.70687 -2.19456
      CHANNELS 3 Zrotation Xrotation Yrotation
      JOINT lShin
      {
        OFFSET 0 -36.8199 0.73152
        CHANNELS 3 Zrotation Xrotation Yrotation
        JOINT lFoot
        {
          OFFSET -0.73152 -45.1104 -5.12064
          CHANNELS 3 Zrotation Xrotation Yrotation
          End Site
          {
            OFFSET 1.1221 -3.69964 12.103
          }
        }
      }
    }
  }
}
MOTION
Frames:	4
Frame Time:	0.00833333
12.1754 83.9104 -45.1284 4.089 8.0997 1.5308 -4.4848 5.49762 -1.86815 4.77252 -2.30603 -0.480493 2.78051 0.226596 -0.305002 -7.30107 -2.40235 -1.50323 -0.0 0.0 0.0 -0.0 0.0 0.0 2.03488e-13 -1.27236e-14 -1.41386e-13 77.7894 9.89113 -6.29576 -12.8944 -6.09597 23.3549 -0.0470692 -6.17983 -0.871935 -1.8292e-09 4.46651e-10 -6.1191e-10 -3.15762e-09 7.69615e-10 -1.0639e-09 -1.8292e-09 4.46654e-10 -6.1192e-10 7.73091 5.47488 0.417314 -1.82921e-09 4.46654e-10 -6.11904e-10 2.90554 0.965183 0.102902 -1.8292e-09 4.46652e-10 -6.11905e-10 10.2786 0.731801 0.0259123 -1.82921e-09 4.46655e-10 -6.11897e-10 2.22167 -0.733487 -0.20892 2.03438e-13 -1.27211e-14 -1.41684e-13 -85.9243 30.2781 9.60194 14.4777 -7.34643 -26.5202 0.150548 -10.993 1.5644 -1.71196e-09 -4.32648e-10 -3.3205e-12 -2.9547e-09 -7.45544e-10 -1.73237e-11 -1.71196e-09 -4.32643e-10 -3.3046e-12 -7.73091 5.47488 -0.417314 -1.71195e-09 -4.32648e-10 -3.31414e-12 -2.90554 0.965183 -0.102902 -1.71197e-09 -4.3265e-10 -3.31255e-12 -10.2786 0.731801 -0.0259123 -1.71195e-09 -4.3265e-10 -3.31732e-12 -2.22167 -0.733487 0.20892 -2.03217e-16 0.0 -3.88251e-19 -12.7882 -38.6008 -1.84347 -0.132462 24.1709 0.244406 -1.40553 2.09529 -17.2429 2.03217e-16 0.0 3.88251e-19 -7.76635 4.09904 -5.65325 0.01477 13.1311 -0.321098 2.36592 -6.89153 10.8743
12.1078 83.8721 -44.7704 4.0741 8.1975 1.7139 -4.42391 5.35726 -1.91419 4.75113 -2.3082 -0.491734 2.74501 0.240438 -0.315985 -7.25435 -2.42412 -1.5138 -0.0 0.0 0.0 -0.0 0.0 0.0 1.57685e-13 1.88875e-15 -2.293e-13 77.7939 9.77839 -6.37162 -12.8455 -6.05953 23.2587 -0.0455996 -6.08229 -0.858069 -1.21781e-09 -5.80688e-10 -1.02925e-09 -2.09872e-09 -1.01053e-09 -1.78461e-09 -1.21781e-09 -5.80684e-10 -1.02926e-09 7.73091 5.47488 0.417314 -1.21781e-09 -5.80685e-10 -1.02924e-09 2.90554 0.965183 0.102902 -1.21781e-09 -5.80686e-10 -1.02925e-09 10.2786 0.731801 0.0259123 -1.21782e-09 -5.80684e-10 -1.02924e-09 2.22167 -0.733487 -0.20892 1.57672e-13 1.88813e-15 -2.29566e-13 -85.976 30.1769 9.6694 14.4583 -7.33024 -26.4808 0.148122 -10.9061 1.55173 -1.25325e-09 2.77879e-10 -2.48456e-10 -2.15972e-09 4.86475e-10 -4.38924e-10 -1.25325e-09 2.77883e-10 -2.4844e-10 -7.73091 5.47488 -0.417314 -1.25325e-09 2.7788e-10 -2.48451e-10 -2.90554 0.965183 -0.102902 -1.25326e-09 2.77877e-10 -2.48448e-10 -10.2786 0.731801 -0.0259123 -1.25325e-09 2.77877e-10 -2.48453e-10 -2.22167 -0.733487 0.20892 -2.03217e-16 0.0 -3.88251e-19 -12.6398 -38.4186 -1.41308 -0.128813 23.8487 0.243267 -1.48396 1.80247 -17.2262 2.03217e-16 0.0 3.88251e-19 -7.67828 4.18618 -5.70833 0.0163609 13.094 -0.318065 2.37633 -6.89833 10.9258
12.0427 83.8356 -44.4081 4.0742 8.2941 1.9003 -4.35766 5.21305 -1.96458 4.72943 -2.32254 -0.503629 2.69003 0.260708 -0.33416 -7.17857 -2.43522 -1.53112 -0.0 0.0 0.0 -0.0 0.0 0.0 6.3315e-14 2.40559e-14 -3.3475e-13 77.8001 9.65468 -6.4497 -12.7968 -6.02336 23.163 -0.0443098 -5.99633 -0.845851 -4.34846e-11 -2.05762e-09 -1.51589e-09 -6.6617e-11 -3.56881e-09 -2.62369e-09 -4.34827e-11 -2.05762e-09 -1.5159e-09 7.73091 5.47488 0.417314 -4.34873e-11 -2.05762e-09 -1.51589e-09 2.90554 0.965183 0.102902 -4.34852e-11 -2.05762e-09 -1.51589e-09 10.2786 0.731801 0.0259123 -4.34928e-11 -2.05762e-09 -1.51588e-09 2.22167 -0.733487 -0.20892 6.33648e-14 2.40503e-14 -3.34952e-13 -86.0299 30.0853 9.74587 14.4401 -7.31511 -26.4439 0.145191 -10.7995 1.53618 -3.22384e-10 1.339e-09 -5.6734e-10 -5.48674e-10 2.3254e-09 -9.85075e-10 -3.22387e-10 1.339e-09 -5.67325e-10 -7.73091 5.47488 -0.417314 -3.22383e-10 1.339e-09 -5.67338e-10 -2.90554 0.965183 -0.102902 -3.22393e-10 1.339e-09 -5.67332e-10 -10.2786 0.731801 -0.0259123 -3.22383e-10 1.339e-09 -5.67338e-10 -2.22167 -0.733487 0.20892 -2.03217e-16 0.0 -3.88251e-19 -12.49 -38.2134 -0.990776 -0.124648 23.4631 0.240605 -1.57178 1.48618 -17.272 2.03217e-16 0.0 3.88251e-19 -7.58087 4.26667 -5.75448 0.0179791 13.0483 -0.313776 2.38267 -6.90053 10.9611
11.9762 83.8002 -44.0468 4.0857 8.3964 2.098 -4.29732 5.07022 -2.01445 4.71017 -2.34132 -0.515249 2.63631 0.276296 -0.352106 -7.10535 -2.44898 -1.54894 -0.0 0.0 0.0 -0.0 0.0 0.0 -3.30568e-14 4.2744e-14 -4.12919e-13 77.8067 9.52866 -6.52501 -12.7497 -5.98852 23.0706 -0.0431819 -5.92043 -0.835066 1.1187e-09 -3.29644e-09 -1.87251e-09 1.94376e-09 -5.71418e-09 -3.23769e-09 1.1187e-09 -3.29644e-09 -1.87252e-09 7.73091 5.47488 0.417314 1.1187e-09 -3.29644e-09 -1.8725e-09 2.90554 0.965183 0.102902 1.1187e-09 -3.29644e-09 -1.8725e-09 10.2786 0.731801 0.0259123 1.11869e-09 -3.29644e-09 -1.8725e-09 2.22167 -0.733487 -0.20892 -3.29418e-14 4.27341e-14 -4.13055e-13 -86.0802 29.9981 9.81873 14.4207 -7.29899 -26.4045 0.142154 -10.6873 1.51984 6.18606e-10 2.2892e-09 -8.21825e-10 1.0791e-09 3.97168e-09 -1.41961e-09 6.18602e-10 2.2892e-09 -8.21811e-10 -7.73091 5.47488 -0.417314 6.18605e-10 2.2892e-09 -8.21826e-10 -2.90554 0.965183 -0.102902 6.18599e-10 2.2892e-09 -8.21818e-10 -10.2786 0.731801 -0.0259123 6.18607e-10 2.28921e-09 -8.21824e-10 -2.22167 -0.733487 0.20892 -2.03217e-16 0.0 -3.88251e-19 -12.3495 -38.0015 -0.607112 -0.120475 23.0676 0.237314 -1.66445 1.16741 -17.3659 2.03217e-16 0.0 3.88251e-19 -7.48436 4.34373 -5.7936 0.0194992 13.0006 -0.30895 2.38593 -6.90044 10.9813
